<?xml version="1.0" encoding="UTF-8"?>
<svg id="Dimensions" xmlns="http://www.w3.org/2000/svg" viewBox="0 0 300 240">
  <rect x="62" y="174" width="178" height="3"/>
  <g>
    <path d="M195.37,171.37c-5.38,0-10.5-1.06-12.25-1.46-.28-.06-.55-.14-.81-.24l-29.6-10.78-30.61,10.2c-.8.21-17.92,4.66-26.5-1.02-2.64-1.75-4.21-4.26-4.67-7.47-.7-4.9,3.44-9.07,8.02-12.84,5.1-4.2,12.81-6.83,19.01-8.95l.57-.2c4.73-1.62,8.92-2.77,11.24-3.38-4.54-4.42-11.17-11.35-12.37-15.24-1.46,1.15-4.32,4.56-5.96,6.53-1.07,1.28-2.08,2.48-2.89,3.36-.98,1.07-2.22,1.91-3.56,2.43-3.37,1.29-9.67,3.29-14.07,2.08-.75-.21-1.45-.57-2.09-1.07-1.43-1.13-4.89-4.18-6.08-8.21-1.1-3.7-1.58-21.54-1.63-23.58l-2.84-9.39c-.14-.51-3.37-12.48.24-18.06,1.03-1.59,2.49-2.54,4.35-2.83.92-.15,1.84.14,2.52.78.68.64,1.01,1.54.92,2.47-.37,3.56-.67,6.33-.92,8.47.7-.89,1.5-1.62,2.36-1.98.9-.37,1.83-.33,2.69.11l.84.43-2.87,11.88s-1.4,6.87,2.18,13.13c1.48,2.6,2.56,5.17,3.6,7.66,1.09,2.6,2.12,5.06,3.46,7.12,2.44-3.9,8-10.07,14.98-11.08-1.13-3.94-4.76-17.37-2.86-19.43.1-.1.2-.19.32-.26-.26-.32-.47-.66-.61-1.02l-.08-.21c-7.1-18.15-1.55-24.98,4.35-27.51,5.33-2.29,11.45-.33,15.14,2.63,3.29,2.64,5.52,6.22,7.51,9.67,1.24,2.14,1.77,4,2.06,5.23,8.02-5.08,16.51-5.08,25.27.01.62-2.19,2-6.22,4.48-9.74,4.5-6.4,11.02-9.36,17.87-8.12,2.89.52,5.18,2.05,6.8,4.53,3.19,4.9,2.94,12.31,1.65,17.6-.8,3.29-2.34,5.93-3.56,7.63h1.84l-.05,1.25c-.02.48-.51,11.08-3.89,17.38,3.42,1.12,11.6,4.42,15.41,11.31l5.82-12.18,1.67-6.8c.61-2.47.75-5,.44-7.52l-1.38-11.24c-.1-.85.32-1.63,1.09-2.01.76-.37,1.64-.23,2.25.37.87.87,1.77,2.37,2.88,4.27-.13-1.39-.35-2.98-.56-4.48-.83-5.97-1.21-9.4.69-10.37,1.53-.79,3.18.79,3.8,1.38,6.3,5.99,3.29,15.8,2.93,16.89l-.03.11-3,12.01-1.17,17.75c0,5.14-2.69,15.09-12.9,15.45-9.43.37-19.21-9.55-22.28-14.17-2.31,5.21-9.89,12.41-12.76,15.02.58.15,1.28.31,1.94.47,1.67.39,3.76.87,6.04,1.57,4.63,1.43,13.45,4.5,20.5,9.03,5.71,3.67,9.69,7.08,10.51,11.81.53,3.06.03,5.66-1.48,7.75-1.78,2.46-4.95,4.09-9.15,4.71-1.56.23-3.17.32-4.76.32ZM152.75,156.34l30.39,11.07c.17.06.35.12.53.16,1.54.35,9.55,2.07,16.12,1.1,2.47-.36,5.79-1.31,7.55-3.75,1.12-1.54,1.47-3.54,1.06-5.93-.67-3.87-4.26-6.88-9.44-10.21-6.82-4.38-15.4-7.37-19.92-8.76-2.2-.68-4.24-1.15-5.88-1.53-3.14-.73-4.32-1-4.6-2.13-.06-.26-.14-.92.53-1.5,3-2.61,11.24-10.45,13.29-15.29.03-.1.04-.25.07-.4.09-.59.25-1.69,1.29-1.92,1.12-.26,1.94.83,2.74,2.04,2.35,3.56,11.32,13.16,19.84,13.16.13,0,.26,0,.39,0,10.43-.37,10.58-12.61,10.59-13.13l1.21-18.14,3.03-12.1c.02-.09.05-.19.08-.29.31-.95,2.92-9.42-2.3-14.4-.5-.47-.83-.71-1.03-.82-.33,1.27.22,5.27.57,7.74.5,3.64.98,7.08.43,8.85-.17.54-.6.91-1.12.98-.53.07-1.04-.19-1.34-.67-.61-1-1.17-1.95-1.68-2.83-.65-1.1-1.24-2.12-1.76-2.9l1.19,9.69c.35,2.81.18,5.63-.5,8.38l-1.78,7.15-6.16,12.88c-.34.72-1.05,1.17-1.84,1.18,0,0-.01,0-.02,0-.79,0-1.5-.44-1.85-1.14-4.07-8.1-15.57-11.07-15.69-11.1l-1.68-.42.99-1.43c3.03-4.36,3.97-13.02,4.23-16.25h-1.31c-.56,0-1.07-.33-1.3-.84s-.14-1.11.23-1.53c.96-1.09,3.29-4.08,4.3-8.22,1.12-4.59,1.44-11.46-1.33-15.73-1.24-1.91-3-3.08-5.21-3.48-8.38-1.51-13.62,4.49-15.48,7.14-3.25,4.62-4.49,10.42-4.5,10.48l-.36,1.7-1.47-.94c-12.94-8.3-21.73-2.45-24.62-.52-.37.25-.65.43-.82.51-.34.17-.73.19-1.08.06-.35-.13-.63-.41-.77-.75-.11-.26-.18-.59-.28-1.03-.24-1.11-.65-2.96-1.94-5.19-1.88-3.25-3.96-6.62-6.93-9-3.14-2.51-8.28-4.19-12.7-2.3-7.07,3.03-8.13,11.48-3.06,24.43l.08.21c.27.68,1.6,1.56,2.24,1.98.69.46,1.55,1.02,1.1,2.02-.43.96-.96.92-3.5.25-.09,3.18,2.59,14.58,3.66,17.61.16.44.1.94-.16,1.33-.26.39-.69.64-1.16.67-6.73.42-12.36,6.98-14.4,10.39-.37.63-1.03,1.01-1.76,1.04-.75.02-1.42-.32-1.83-.93-1.59-2.33-2.72-5.03-3.92-7.89-1.01-2.42-2.06-4.93-3.47-7.4-4.04-7.08-2.5-14.54-2.43-14.85l2.29-9.51c-1.5.96-3.22,4.54-4.02,6.94h0s0,.02-.01.03l-2.27-.79s0-.02.01-.04c.02-.09.49-2.09,1.85-15.27.03-.25-.1-.41-.18-.48-.08-.08-.25-.19-.5-.16-1.17.18-2.05.76-2.7,1.76-2.51,3.88-.82,12.92.05,16.1l2.92,9.82c.13,5.43.67,20.18,1.54,23.12,1,3.36,4.01,6.02,5.26,7,.39.31.81.52,1.24.64,3.88,1.06,10.08-1.05,12.57-2.01,1-.39,1.92-1.01,2.66-1.81.77-.84,1.76-2.03,2.81-3.28,5.27-6.29,7.17-8.17,8.81-7.68.32.1,1.08.45,1.21,1.64.24,2.15,5.32,8.33,12.66,15.37.46.44.64,1.1.48,1.71-.16.61-.65,1.09-1.27,1.25-1.81.45-6.61,1.7-12.18,3.61l-.57.2c-6.01,2.05-13.5,4.61-18.26,8.53-4.04,3.33-7.7,6.92-7.17,10.65.36,2.53,1.54,4.43,3.61,5.8,7.67,5.08,24.32.77,24.49.72l31.33-10.45ZM112.92,111.29s.01.04.02.07c0,0,0-.03-.02-.07Z"/>
    <path d="M185.93,160.55c-.48,0-.97-.05-1.45-.16-3.64-.8-15.2-3.35-18.15-3.98-3.12-.67-10.6,1.44-13.23,2.31l-.75-2.28c1.03-.34,10.18-3.31,14.49-2.38,2.95.63,14.52,3.18,18.16,3.99.61.13,1.22.14,1.83,0,2.52-.54,4.4-1.67,4.51-2.34.05-.29-.35-.89-1.62-1.67-.62-.38-1.4-.45-2.09-.19-2.08.78-6.31,1.96-11.26,1.17-2.67-.43-3.99-2.45-3.87-4.15.09-1.32,1.11-2.88,3.68-2.94,2.94-.07,5.11.1,6.7.22,1.08.08,2.2.17,2.49.05,1.44-.63,1.45-.64,2-1.34.27-.35.36-.62.32-.72-.01-.03-.31-.72-3.03-1.18-6.38-1.08-10.97,2.64-11.01,2.68l-.24.15c-2.64,1.3-7.32,3.17-8.98,1.15-.52-.64-.69-1.39-.48-2.11.55-1.93,3.55-3.08,7.71-4.49.76-.26,1.45-.49,1.97-.7.39-.15.44-.35.46-.42.06-.27-.04-.78-.53-1.35l.79-.92-.89.81s-.06-.02-.45-.13c-.75-.04-4.29.37-4.92.55-.96.28-2.11,1.51-3.43,2.93-.82.88-1.74,1.88-2.8,2.83-3.01,2.72-6.69,4.72-10.62,5.8l-21.56,5.86-12.97,2.26-.17-.02c-6-.66-9.21-1.89-9.54-3.64-.19-1.03.45-1.92,1.9-2.67,2.71-1.39,5.05-1.56,6.54-1.45,1.1.08,2.17-.04,3.18-.36l3.7-1.17c-.91-.06-2.23-.09-4.14-.04-3.03.09-6.54-.1-6.83-2.41-.29-2.24,3.2-3.99,5.12-4.43,2.74-.62,4.3-.63,5.78-.43l.21.05,2.17.7c1.01.33,1.97.91,2.85,1.74.44.38,2.17,1.56,3.8,1.62.94.04,1.79-.16,2.38-.39-6.66-1.6-7.89-4.25-8.08-4.77l-.07-.33c-.01-.2.02-.71.5-1.22.75-.79,2.23-1.16,4.64-1.16,3.97,0,13.73,8.27,16.67,10.84l3.29-.89c3.58-.97,6.91-2.79,9.64-5.26.98-.88,1.83-1.8,2.65-2.68,1.57-1.69,2.92-3.14,4.53-3.6.7-.2,5.33-.8,6.1-.58,1.08.29,1.44.55,1.8.97.97,1.12,1.36,2.4,1.08,3.53-.23.95-.91,1.69-1.91,2.09-.55.22-1.28.46-2.08.74-1.53.52-5.51,1.87-6.12,2.78.72.28,3.46-.5,5.92-1.7.86-.67,5.86-4.27,12.83-3.1,2.75.47,4.35,1.34,4.87,2.68.26.67.36,1.75-.66,3.06-.83,1.06-1.15,1.3-2.94,2.07-.82.36-1.88.27-3.63.14-1.54-.12-3.64-.28-6.45-.22-.3,0-1.3.08-1.34.7-.04.53.53,1.4,1.86,1.61,4.56.73,8.54-.49,10.04-1.05,1.38-.51,2.94-.36,4.18.4,2.06,1.26,2.98,2.65,2.73,4.13-.49,2.89-5.4,4.08-6.38,4.29-.46.1-.93.15-1.4.15ZM109.67,155.84c1.09.57,4.01,1.25,6.97,1.59l12.58-2.19,15.31-4.16c-4.76-4.04-11.59-9.2-13.88-9.2-1.08,0-1.78.09-2.22.18.77.69,2.47,1.79,6.02,2.62,2.24.52,2.42,1.69,2.34,2.35-.25,1.87-3.45,2.8-5.59,2.72-2.81-.1-5.22-2.14-5.32-2.23-.66-.62-1.32-1.02-1.99-1.24l-2.06-.66c-1.23-.15-2.49-.13-4.83.4-1.41.32-2.73,1.2-3.15,1.7.4.18,1.49.48,4.26.39,6.52-.2,7.92.47,8.23,1.78.22.94-.42,1.83-1.76,2.45l-.14.05-5.09,1.61c-1.3.41-2.67.57-4.08.47-1.18-.09-3.05.05-5.26,1.19-.13.07-.24.13-.33.18Z"/>
    <path d="M153.06,112.6c-6.08,0-13.09-.76-15.72-1.28-.7-.14-1.34-.26-1.93-.37-3.91-.74-5.87-1.11-10.25-4.03l1.33-2c3.97,2.65,5.55,2.95,9.36,3.67.6.11,1.24.24,1.95.38,3.77.75,15.81,1.84,21.51.82,1.68-.3,3.46-.55,5.19-.79,4.13-.57,8.39-1.16,10.63-2.47l1.21,2.07c-2.64,1.55-6.95,2.15-11.51,2.78-1.7.24-3.46.48-5.09.77-1.83.33-4.18.46-6.69.46Z"/>
    <path d="M149.71,116.32c-4.31,0-6.1-1.42-6.35-1.64l1.56-1.82s2.65,2.03,9.9.45l.51,2.35c-2.22.48-4.08.67-5.62.67Z"/>
    <path d="M115.97,80.92v-2.4c3.24,0,9.18-1.15,10.73-2.89l1.79,1.6c-2.52,2.81-10.06,3.69-12.52,3.69Z"/>
    <path d="M118.37,84.61l-1.28-2.03c1.29-.82.69-2.19.61-2.35l2.17-1.03c.56,1.19.98,3.84-1.5,5.41Z"/>
    <path d="M121.74,83.78l-1.28-2.03c1.29-.82.69-2.19.61-2.35l2.17-1.03c.56,1.19.98,3.84-1.5,5.41Z"/>
    <path d="M125.11,82.67l-1.28-2.03c1.24-.78.72-2.1.61-2.36l2.17-1.02c.57,1.19.98,3.84-1.5,5.41Z"/>
    <path d="M185.73,80.63c-2.46,0-10-.87-12.52-3.69l1.79-1.6c1.55,1.74,7.49,2.89,10.73,2.89v2.4Z"/>
    <path d="M183.33,84.32c-2.48-1.56-2.06-4.22-1.5-5.41l2.17,1.03-1.08-.52,1.09.51c-.12.26-.63,1.57.61,2.35l-1.28,2.03Z"/>
    <path d="M179.96,83.49c-2.48-1.56-2.06-4.22-1.5-5.41l2.17,1.03-1.08-.52,1.09.51c-.12.26-.63,1.57.61,2.36l-1.28,2.03Z"/>
    <path d="M176.59,82.38c-2.48-1.56-2.06-4.22-1.5-5.41l2.17,1.03-1.08-.52,1.09.51c-.12.26-.63,1.57.61,2.36l-1.28,2.03Z"/>
    <path d="M147.35,89.04h-.04c-.54-.01-1.04-.27-1.36-.71l-1.26-1.74-.06-.22c-.58-2.27-.33-3.55.79-3.91h0c.51-.17,2.07-.67,3.95,4.11l.25.65-.94,1.18c-.33.41-.82.65-1.34.65Z"/>
    <path d="M154.63,89.04c-.53,0-1.01-.23-1.34-.65l-.94-1.18.25-.65c1.88-4.78,3.44-4.27,3.95-4.11h0c1.12.36,1.38,1.64.79,3.91l-.06.22-1.26,1.74c-.32.44-.81.7-1.36.71h-.04Z"/>
  </g>
</svg>